<svg width="18" height="18" viewBox="0 0 18 18" fill="none" xmlns="http://www.w3.org/2000/svg">
<path fill-rule="evenodd" clip-rule="evenodd" d="M0 9C0 4.02975 4.02975 0 9 0C13.9703 0 18 4.02975 18 9C18 13.9703 13.9703 18 9 18C4.02975 18 0 13.9703 0 9ZM16.875 9C16.875 4.6575 13.3425 1.125 9 1.125C4.6575 1.125 1.125 4.6575 1.125 9C1.125 13.3425 4.6575 16.875 9 16.875C13.3425 16.875 16.875 13.3425 16.875 9ZM8.99859 6.95655C8.63747 6.95655 8.33203 7.06511 8.33203 7.47968V14.354L8.3556 14.3574C8.81308 14.4231 9.64884 14.5432 9.64884 13.8753V7.00099C9.43341 6.96949 9.21572 6.95655 8.99859 6.95655ZM9.0063 5.43189C9.55024 5.43189 9.99067 4.99089 9.99067 4.44752C9.99067 3.90358 9.55024 3.46314 9.0063 3.46314C8.46292 3.46314 8.02192 3.90358 8.02192 4.44752C8.02192 4.99089 8.46292 5.43189 9.0063 5.43189Z" fill="#000FF5"/>
</svg>
